<svg width="46" height="46" viewBox="0 0 46 46" fill="none" xmlns="http://www.w3.org/2000/svg">
<path d="M40.9895 22.687C41.1631 32.6236 33.2481 40.82 23.3102 40.9933C13.3764 41.1662 5.17992 33.2506 5.00748 23.3145C4.83252 13.3772 12.7475 5.18036 22.6823 5.00717C32.6193 4.8334 40.8157 12.7502 40.9893 22.6873L40.9894 22.687L40.9895 22.687Z" fill="#F5F8FE"/>
<path fill-rule="evenodd" clip-rule="evenodd" d="M30.0007 18.4686C29.7268 16.0621 27.632 15.2903 25.0009 15.106L24.9425 11.7624L22.9072 11.7983L22.9642 15.0538C22.4291 15.0631 21.8825 15.0832 21.3392 15.1036L21.2823 11.8264L19.2482 11.8619L19.3059 15.2046C18.8655 15.2213 18.4328 15.2372 18.0109 15.2447L18.0105 15.2343L15.2034 15.2822L15.2419 17.456C15.2419 17.456 16.7444 17.4012 16.7199 17.4291C17.5441 17.415 17.8209 17.889 17.9063 18.3005L17.9729 22.1097C18.0297 22.1089 18.104 22.11 18.1883 22.1202L18.1291 22.1212C18.0789 22.122 18.0267 22.1229 17.9733 22.1243L18.0659 27.4606C18.0344 27.7206 17.8891 28.1371 17.3131 28.148C17.3397 28.1706 15.8337 28.1735 15.8337 28.1735L15.4716 30.6113L18.1203 30.565C18.4104 30.5603 18.6978 30.5583 18.9822 30.5564L18.9825 30.5564L18.9828 30.5564C19.1815 30.5551 19.3788 30.5537 19.5746 30.5515L19.6346 33.9332L21.6676 33.898L21.6091 30.5519C22.1675 30.5538 22.7077 30.5488 23.2352 30.5391L23.2925 33.8696L25.3279 33.8338L25.2694 30.4581C28.6878 30.202 31.0675 29.2983 31.3087 26.0797C31.5036 23.4882 30.2664 22.3551 28.3161 21.9225C29.4857 21.301 30.205 20.2295 30.0015 18.4686L30.0008 18.4684L30.0007 18.4686ZM27.2793 25.7492C27.3208 28.0678 23.6776 28.0809 22.0107 28.0868C21.8608 28.0874 21.7268 28.0878 21.613 28.0899L21.5353 23.6093C21.6741 23.6069 21.8426 23.6 22.0335 23.5921L22.0335 23.5921C23.7406 23.522 27.2381 23.3784 27.2794 25.7492L27.2793 25.7492ZM21.8343 21.5563C23.2249 21.5549 26.2586 21.5519 26.2223 19.4442L26.2225 19.4441C26.1846 17.2887 23.2699 17.4168 21.8463 17.4793C21.6862 17.4864 21.5449 17.4926 21.4287 17.4946L21.4995 21.5582C21.5952 21.5565 21.7079 21.5564 21.8343 21.5563Z" fill="#F7931A"/>
</svg>
