<svg width="55" height="55" viewBox="0 0 55 55" fill="none" xmlns="http://www.w3.org/2000/svg">
<path d="M27.5 55C42.6878 55 55 42.6878 55 27.5C55 12.3122 42.6878 0 27.5 0C12.3122 0 0 12.3122 0 27.5C0 42.6878 12.3122 55 27.5 55Z" fill="url(#paint0_linear_413_709)"/>
<path d="M25.3587 35.4417L25.3658 34.4269L25.4041 29.0117L25.411 28.0252L26.3976 28.0188C26.5394 28.0179 26.723 28.0123 26.9387 28.0056C27.8689 27.9771 29.3967 27.9303 30.7517 28.1641C31.5941 28.3094 32.4992 28.58 33.2113 29.12C33.9732 29.6979 34.4672 30.5533 34.4594 31.6842L25.3587 35.4417ZM25.3587 35.4417L26.3735 35.4339M25.3587 35.4417L26.3735 35.4339M26.3735 35.4339C26.4966 35.433 26.6477 35.4341 26.8215 35.4355M26.3735 35.4339L26.8215 35.4355M26.8215 35.4355C27.7502 35.4426 29.3271 35.4547 30.7393 35.1776M26.8215 35.4355L30.7393 35.1776M30.7393 35.1776C31.5809 35.0124 32.4774 34.7263 33.1846 34.1942M30.7393 35.1776L33.1846 34.1942M33.1846 34.1942C33.9352 33.6294 34.4521 32.7967 34.4594 31.6848L33.1846 34.1942ZM36.0551 23.0062L36.0552 23.008C36.1393 23.9069 35.9813 24.5469 35.7122 25.0165C35.4412 25.4894 35.0098 25.8723 34.4099 26.173L31.9168 27.4229L34.6361 28.042C35.7189 28.2886 36.4468 28.6912 36.8868 29.249C37.3146 29.7915 37.5902 30.6344 37.4481 32.0272L37.4481 32.0274C37.28 33.6788 36.5991 34.6219 35.5681 35.2326C34.4571 35.8907 32.8521 36.2134 30.7633 36.3441L29.8325 36.4024L29.8258 37.3351L29.8038 40.4289L29.2803 40.4325L29.302 37.4212L29.3093 36.4063L28.2943 36.4141C27.6463 36.4191 26.9835 36.4184 26.2994 36.4092L25.2929 36.3957L25.286 37.4022L25.2649 40.4595L24.7438 40.463L24.7643 37.3891L24.771 36.3819L23.7637 36.3825C23.5385 36.3826 23.305 36.3817 23.0674 36.3809C22.7014 36.3795 22.3258 36.3781 21.9557 36.3802L21.9547 36.3803L19.8715 36.3943L20.0363 35.4656C20.0665 35.4657 20.0968 35.4657 20.1271 35.4658C20.3595 35.466 20.596 35.4654 20.7744 35.4629C20.8616 35.4616 20.9452 35.4598 21.0099 35.4568C21.0372 35.4555 21.0856 35.4531 21.1351 35.4472L21.1367 35.4471C21.1378 35.4469 21.1393 35.4468 21.1412 35.4465C21.7164 35.4183 22.1883 35.1873 22.516 34.8094C22.8306 34.4466 22.9375 34.0348 22.9762 33.776L22.9866 33.7061L22.9871 33.6353L23.0324 27.1861L22.3669 27.1814L22.3679 27.164L23.0323 27.1686L23.064 22.5649L23.0646 22.4686L23.0469 22.374C22.9759 21.9946 22.8002 21.5001 22.3703 21.1014C21.9461 20.7079 21.3805 20.5055 20.7159 20.4907C20.6641 20.4848 20.6161 20.4827 20.5904 20.4816C20.5222 20.4789 20.436 20.478 20.3485 20.4778C20.1932 20.4775 19.9948 20.4796 19.7939 20.4826L19.798 19.8698L21.3111 19.8601L21.3114 19.8736L22.2932 19.8664C22.8272 19.8625 23.3728 19.8486 23.9187 19.8341L24.8852 19.8084L24.8921 18.8416L24.9138 15.7879L25.4363 15.7844L25.4156 18.7312L25.4083 19.7649L26.4417 19.7379C27.1169 19.7202 27.7857 19.7032 28.4382 19.6987L29.4246 19.692L29.4314 18.7056L29.4515 15.7574L29.9751 15.7538L29.9542 18.7812L29.9478 19.7119L30.8758 19.785C32.4547 19.9092 33.7302 20.1979 34.6173 20.7183C35.4415 21.2017 35.9528 21.8921 36.0551 23.0062ZM33.3386 24.0529L33.3386 24.0525C33.3455 23.0276 32.9363 22.2281 32.2651 21.6732C31.6387 21.1554 30.8459 20.8996 30.123 20.7639C28.9646 20.5465 27.6526 20.5911 26.8816 20.6173C26.7065 20.6232 26.5593 20.6282 26.4482 20.629L25.462 20.6358L25.4551 21.622L25.421 26.5332L25.4139 27.5471L26.4278 27.5402C26.5265 27.5395 26.6498 27.5408 26.793 27.5423C27.5633 27.5504 28.9094 27.5647 30.1137 27.3097C30.8348 27.157 31.6179 26.8883 32.2388 26.3806C32.9006 25.8395 33.3313 25.0615 33.3386 24.0529Z" fill="white" stroke="white" stroke-width="2"/>
<defs>
<linearGradient id="paint0_linear_413_709" x1="0" y1="27.5" x2="55" y2="27.5" gradientUnits="userSpaceOnUse">
<stop stop-color="#F9AA4C"/>
<stop offset="1" stop-color="#F7941F"/>
</linearGradient>
</defs>
</svg>
