<svg width="25" height="25" viewBox="0 0 25 25" fill="none" xmlns="http://www.w3.org/2000/svg">
<path d="M20.2395 13.5208C20.2812 13.1874 20.3125 12.8541 20.3125 12.4999C20.3125 12.1458 20.2812 11.8124 20.2395 11.4791L22.4375 9.76036C22.6354 9.60411 22.6875 9.32286 22.5625 9.09369L20.4791 5.48953C20.4177 5.38206 20.32 5.29997 20.2036 5.25797C20.0872 5.21598 19.9596 5.21682 19.8437 5.26036L17.25 6.30203C16.7083 5.88536 16.125 5.54161 15.4895 5.2812L15.0937 2.52078C15.076 2.3984 15.0146 2.2866 14.9207 2.20613C14.8268 2.12567 14.7069 2.08201 14.5833 2.08328H10.4166C10.1562 2.08328 9.93745 2.27078 9.9062 2.52078L9.51037 5.2812C8.87495 5.54161 8.29162 5.89578 7.74995 6.30203L5.1562 5.26036C5.09566 5.24045 5.03243 5.22991 4.9687 5.22911C4.79162 5.22911 4.61454 5.32286 4.52079 5.48953L2.43745 9.09369C2.30204 9.32286 2.36454 9.60411 2.56245 9.76036L4.76037 11.4791C4.7187 11.8124 4.68745 12.1562 4.68745 12.4999C4.68745 12.8437 4.7187 13.1874 4.76037 13.5208L2.56245 15.2395C2.36454 15.3958 2.31245 15.677 2.43745 15.9062L4.52079 19.5104C4.5822 19.6178 4.67987 19.6999 4.79631 19.7419C4.91275 19.7839 5.04033 19.7831 5.1562 19.7395L7.74995 18.6979C8.29162 19.1145 8.87495 19.4583 9.51037 19.7187L9.9062 22.4791C9.93745 22.7291 10.1562 22.9166 10.4166 22.9166H14.5833C14.8437 22.9166 15.0625 22.7291 15.0937 22.4791L15.4895 19.7187C16.125 19.4583 16.7083 19.1041 17.25 18.6979L19.8437 19.7395C19.9062 19.7604 19.9687 19.7708 20.0312 19.7708C20.2083 19.7708 20.3854 19.677 20.4791 19.5104L22.5625 15.9062C22.6875 15.677 22.6354 15.3958 22.4375 15.2395L20.2395 13.5208ZM18.177 11.7395C18.2187 12.0624 18.2291 12.2812 18.2291 12.4999C18.2291 12.7187 18.2083 12.9479 18.177 13.2604L18.0312 14.4374L18.9583 15.1666L20.0833 16.0416L19.3541 17.302L18.0312 16.7708L16.9479 16.3333L16.0104 17.0416C15.5625 17.3749 15.1354 17.6249 14.7083 17.802L13.6041 18.2499L13.4375 19.427L13.2291 20.8333H11.7708L11.5729 19.427L11.4062 18.2499L10.302 17.802C9.85412 17.6145 9.43745 17.3749 9.02079 17.0624L8.07287 16.3333L6.9687 16.7812L5.64579 17.3124L4.91662 16.052L6.04162 15.177L6.9687 14.4479L6.82287 13.2708C6.79162 12.9479 6.77079 12.7083 6.77079 12.4999C6.77079 12.2916 6.79162 12.052 6.82287 11.7395L6.9687 10.5624L6.04162 9.83328L4.91662 8.95828L5.64579 7.69786L6.9687 8.22911L8.05204 8.66661L8.98954 7.95828C9.43745 7.62494 9.86454 7.37495 10.2916 7.19786L11.3958 6.74995L11.5625 5.57286L11.7708 4.16661H13.2187L13.4166 5.57286L13.5833 6.74995L14.6875 7.19786C15.1354 7.38536 15.552 7.62495 15.9687 7.93745L16.9166 8.66661L18.0208 8.2187L19.3437 7.68745L20.0729 8.94786L18.9583 9.83328L18.0312 10.5624L18.177 11.7395ZM12.5 8.33328C10.1979 8.33328 8.33329 10.1979 8.33329 12.4999C8.33329 14.802 10.1979 16.6666 12.5 16.6666C14.802 16.6666 16.6666 14.802 16.6666 12.4999C16.6666 10.1979 14.802 8.33328 12.5 8.33328ZM12.5 14.5833C11.3541 14.5833 10.4166 13.6458 10.4166 12.4999C10.4166 11.3541 11.3541 10.4166 12.5 10.4166C13.6458 10.4166 14.5833 11.3541 14.5833 12.4999C14.5833 13.6458 13.6458 14.5833 12.5 14.5833Z" fill="white"/>
</svg>
