<svg width="25" height="25" viewBox="0 0 25 25" fill="none" xmlns="http://www.w3.org/2000/svg">
<path d="M15.6249 20.8333H18.7499C19.3025 20.8333 19.8324 20.6138 20.2231 20.2231C20.6138 19.8324 20.8333 19.3025 20.8333 18.7499V15.6249C20.8333 15.3487 20.943 15.0837 21.1383 14.8884C21.3337 14.693 21.5987 14.5833 21.8749 14.5833C22.1512 14.5833 22.4161 14.693 22.6115 14.8884C22.8068 15.0837 22.9166 15.3487 22.9166 15.6249V18.7499C22.9166 19.855 22.4776 20.9148 21.6962 21.6962C20.9148 22.4776 19.855 22.9166 18.7499 22.9166H6.24992C5.14485 22.9166 4.08504 22.4776 3.30364 21.6962C2.52224 20.9148 2.08325 19.855 2.08325 18.7499V15.6249C2.08325 15.3487 2.193 15.0837 2.38835 14.8884C2.5837 14.693 2.84865 14.5833 3.12492 14.5833C3.40119 14.5833 3.66614 14.693 3.86149 14.8884C4.05684 15.0837 4.16659 15.3487 4.16659 15.6249V18.7499C4.16659 19.3025 4.38608 19.8324 4.77678 20.2231C5.16748 20.6138 5.69738 20.8333 6.24992 20.8333H9.37492C9.65119 20.8333 9.91614 20.943 10.1115 21.1383C10.3068 21.3337 10.4166 21.5987 10.4166 21.8749C10.4166 22.1512 10.3068 22.4161 10.1115 22.6115C9.91614 22.8068 9.65119 22.9166 9.37492 22.9166H15.6249C15.3487 22.9166 15.0837 22.8068 14.8884 22.6115C14.693 22.4161 14.5833 22.1512 14.5833 21.8749C14.5833 21.5987 14.693 21.3337 14.8884 21.1383C15.0837 20.943 15.3487 20.8333 15.6249 20.8333ZM4.16659 9.37492C4.16659 9.65119 4.05684 9.91614 3.86149 10.1115C3.66614 10.3068 3.40119 10.4166 3.12492 10.4166C2.84865 10.4166 2.5837 10.3068 2.38835 10.1115C2.193 9.91614 2.08325 9.65119 2.08325 9.37492V6.24992C2.08325 5.14485 2.52224 4.08504 3.30364 3.30364C4.08504 2.52224 5.14485 2.08325 6.24992 2.08325L9.37492 2.08325C9.65119 2.08325 9.91614 2.193 10.1115 2.38835C10.3068 2.5837 10.4166 2.84865 10.4166 3.12492C10.4166 3.40119 10.3068 3.66614 10.1115 3.86149C9.91614 4.05684 9.65119 4.16659 9.37492 4.16659H6.24992C5.69738 4.16659 5.16748 4.38608 4.77678 4.77678C4.38608 5.16748 4.16659 5.69738 4.16659 6.24992V9.37492ZM20.8333 9.37492V6.24992C20.8333 5.69738 20.6138 5.16748 20.2231 4.77678C19.8324 4.38608 19.3025 4.16659 18.7499 4.16659H15.6249C15.3487 4.16659 15.0837 4.05684 14.8884 3.86149C14.693 3.66614 14.5833 3.40119 14.5833 3.12492C14.5833 2.84865 14.693 2.5837 14.8884 2.38835C15.0837 2.193 15.3487 2.08325 15.6249 2.08325H18.7499C19.855 2.08325 20.9148 2.52224 21.6962 3.30364C22.4776 4.08504 22.9166 5.14485 22.9166 6.24992V9.37492C22.9166 9.65119 22.8068 9.91614 22.6115 10.1115C22.4161 10.3068 22.1512 10.4166 21.8749 10.4166C21.5987 10.4166 21.3337 10.3068 21.1383 10.1115C20.943 9.91614 20.8333 9.65119 20.8333 9.37492Z" fill="white"/>
</svg>
