<svg width="26" height="26" viewBox="0 0 26 26" fill="none" xmlns="http://www.w3.org/2000/svg">
<g clip-path="url(#clip0_413_984)">
<path d="M3.39136 8.216C4.16802 9.67348 4.57646 11.3223 4.57646 13C4.57646 14.6777 4.16802 16.3265 3.39136 17.784M7.59545 5.473C8.80936 7.76904 9.44733 10.3621 9.44733 13C9.44733 15.6379 8.80936 18.231 7.59545 20.527M11.7874 2.73C13.4612 5.85602 14.3429 9.39561 14.345 12.9983C14.3471 16.6009 13.4697 20.1417 11.7995 23.27M15.9915 0C18.1055 3.9593 19.2174 8.4402 19.2174 13C19.2174 17.5598 18.1055 22.0407 15.9915 26" stroke="white" stroke-width="2" stroke-linecap="round" stroke-linejoin="round"/>
</g>
<defs>
<clipPath id="clip0_413_984">
<rect width="26" height="26" fill="white"/>
</clipPath>
</defs>
</svg>
