<svg width="36" height="36" viewBox="0 0 36 36" fill="none" xmlns="http://www.w3.org/2000/svg">
<path d="M35.4574 22.3543C33.0534 31.9972 23.2866 37.8658 13.6426 35.4611C4.0025 33.0571 -1.86601 23.2897 0.539074 13.6476C2.94205 4.00354 12.7088 -1.86541 22.3499 0.538622C31.9933 2.94265 37.8617 12.7109 35.4574 22.3543Z" fill="#F5F8FE"/>
<path fill-rule="evenodd" clip-rule="evenodd" d="M20.2775 20.0407C20.1502 20.0502 19.4926 20.0895 18.0257 20.0895C16.859 20.0895 16.0307 20.0545 15.7401 20.0407C11.2313 19.8423 7.86592 19.0575 7.86592 18.1177C7.86592 17.178 11.2313 16.3942 15.7401 16.1927V19.259C16.0349 19.2802 16.8792 19.33 18.0459 19.33C19.4459 19.33 20.147 19.2717 20.2732 19.26V16.1948C24.7725 16.3953 28.1304 17.1801 28.1304 18.1177C28.1304 19.0553 24.7735 19.8402 20.2732 20.0396L20.2775 20.0407ZM20.2774 15.8777V13.1338H26.5564V8.94958H9.46109V13.1338H15.739V15.8766C10.6363 16.111 6.79889 17.1218 6.79889 18.333C6.79889 19.5443 10.6363 20.554 15.739 20.7895V29.5821H20.2764V20.7863C25.3674 20.5519 29.1985 19.5422 29.1985 18.332C29.1985 17.1218 25.3706 16.1121 20.2764 15.8766L20.2774 15.8777Z" fill="#50AF95"/>
</svg>
