<svg width="20" height="20" viewBox="0 0 20 20" fill="none" xmlns="http://www.w3.org/2000/svg">
<path d="M10.24 6.59H8.81083V9.40667H11.0583V10.5858H8.81083V13.4025H10.31C10.695 13.4025 13.4717 13.4458 13.4675 10.125C13.4633 6.80417 10.7742 6.59 10.24 6.59ZM10 0C4.4775 0 0 4.4775 0 10C0 15.5225 4.4775 20 10 20C15.5225 20 20 15.5225 20 10C20 4.4775 15.5225 0 10 0ZM10.3933 15.4008H6.77167V10.5858H5.495V9.40667H6.77167V4.5925H9.88C10.615 4.5925 15.4858 4.44 15.4858 10.0875C15.485 15.8275 10.3933 15.4008 10.3933 15.4008Z" fill="white"/>
</svg>
