<svg width="42" height="43" viewBox="0 0 42 43" fill="none" xmlns="http://www.w3.org/2000/svg">
<circle cx="20.711" cy="22.2451" r="20.711" fill="url(#paint0_radial_413_750)"/>
<path fill-rule="evenodd" clip-rule="evenodd" d="M31.5075 30.8873C31.2949 30.8587 31.0902 30.8289 30.8933 30.7978C26.5613 30.1084 26.1259 28.5663 25.5609 27.3843C25.1019 27.186 24.8766 27.0263 24.6414 26.208C24.5398 25.8586 24.3639 24.3079 24.4383 23.7036C24.7944 23.3693 25.0647 22.5202 25.182 22.1257C25.498 21.0704 25.5745 20.8141 25.8756 19.408C25.9185 19.2076 26.0322 19.126 26.1244 19.0916C26.4047 18.9899 26.4691 18.7644 26.5606 18.5976C26.7773 18.2153 26.5914 18.0435 26.9296 17.1106C27.3615 16.0496 27.4287 14.9571 27.1012 14.6435C26.8788 14.4452 26.7437 14.5934 26.6343 14.6335C26.5613 14.6621 26.6178 14.4795 26.6836 14.2197C26.9432 13.1508 26.9446 12.2451 27.0147 11.1497C27.0712 10.2627 27.0118 9.45367 26.901 8.9518C26.7966 8.84799 26.527 7.6846 26.2181 7.00446C25.6904 5.83605 24.1086 5.65492 23.5666 5.42081C22.2766 4.88028 20.6634 4.14788 18.7513 4.97478C17.9003 5.34206 16.7669 5.37785 15.5334 6.76748C15.2417 7.09395 14.7211 6.8133 14.1397 8.08481C13.5498 9.33053 13.5183 10.151 13.6528 11.0416L13.612 11.0438C13.612 11.0438 13.627 13.1751 13.888 14.244C13.9524 14.5046 14.0074 14.6857 13.9359 14.6585C13.8272 14.6184 13.6778 14.4896 13.4554 14.6886C13.1265 15.0022 13.3009 16.0496 13.7328 17.1106C14.0732 18.0435 13.8465 18.3212 14.2084 18.8124C14.3371 18.9871 14.4572 19.0794 14.5959 19.1381C14.6889 19.1754 14.8198 19.1868 14.8805 19.3815C15.2788 20.8277 15.3525 21.2716 15.7665 22.1322C15.9453 22.5037 16.1462 23.4337 16.5166 23.7946C16.5774 24.3036 16.5145 25.7706 16.4344 26.208C16.3057 26.896 16.0647 27.095 15.4176 27.3843C15.0658 28.5298 14.1326 29.5664 10.2297 30.7649C10.0962 30.806 9.9601 30.8468 9.82137 30.8873C9.747 30.9122 8.4253 32.0536 5.85626 34.3117C5.63772 34.5037 5.48286 34.758 5.41233 35.0404C5.3418 35.3229 5.35895 35.6202 5.46149 35.8926C5.56403 36.1651 5.7471 36.3997 5.98627 36.5654C6.22544 36.731 6.50936 36.8197 6.80017 36.8196H34.6217C34.9151 36.8197 35.2014 36.7295 35.4418 36.5613C35.6822 36.393 35.8651 36.1547 35.9658 35.8788C36.0664 35.603 36.0798 35.3028 36.0043 35.019C35.9287 34.7352 35.7679 34.4815 35.5434 34.2923L31.5075 30.8873Z" fill="white"/>
<defs>
<radialGradient id="paint0_radial_413_750" cx="0" cy="0" r="1" gradientUnits="userSpaceOnUse" gradientTransform="translate(39.3508 9.02537) rotate(118.782) scale(38.7135 55.7408)">
<stop stop-color="#7388FF"/>
<stop offset="0.5" stop-color="#CA73FF"/>
<stop offset="1" stop-color="#FF739D"/>
</radialGradient>
</defs>
</svg>
